<svg height="128" width="128" xmlns="http://www.w3.org/2000/svg">
  <clipPath id="a">
    <path d="M-3.675-3.674h135.35v135.348H-3.675zM64.02 28.567c-19.574 0-35.448 15.874-35.448 35.449 0 19.574 15.874 35.448 35.448 35.448 19.575 0 35.406-15.874 35.406-35.448 0-19.575-15.831-35.449-35.406-35.449z" display="block"/>
  </clipPath>
  <clipPath id="b">
    <path d="M64.02 26.281c-20.824 0-37.717 16.896-37.717 37.719s16.893 37.719 37.717 37.719c20.823 0 37.677-16.9 37.677-37.719 0-20.818-16.854-37.719-37.677-37.719z" display="block"/>
  </clipPath>
  <g fill="#9a9996">
    <path clip-path="url(#a)" d="M64.014 1.329a63.13 63.13 0 00-10.609.913l-1.681 17.824a45.183 45.183 0 00-10.096 4.164L27.852 12.85a62.97 62.97 0 00-15.03 15L24.23 41.627a45.366 45.366 0 00-4.193 10.096L2.241 53.404a63.095 63.095 0 00-.913 10.61c0 3.622.323 7.155.913 10.609l17.796 1.683a45.374 45.374 0 004.193 10.096l-11.38 13.774a63.026 63.026 0 0014.973 15.002l13.804-11.408a45.2 45.2 0 0010.095 4.192l1.683 17.825a63.13 63.13 0 0010.61.884 62.79 62.79 0 0010.58-.884l1.683-17.825a45.196 45.196 0 0010.096-4.192l13.803 11.408a63.046 63.046 0 0014.973-15.002l-11.38-13.774a45.366 45.366 0 004.193-10.096l17.796-1.683c.59-3.454.913-6.987.913-10.61 0-3.615-.325-7.16-.913-10.609l-17.796-1.682a45.373 45.373 0 00-4.192-10.096l11.408-13.775a63.002 63.002 0 00-15.032-15L86.372 24.23a45.177 45.177 0 00-10.096-4.164L74.592 2.242a62.794 62.794 0 00-10.58-.913z" stroke="#000" stroke-linecap="round" stroke-linejoin="round" stroke-width=".007" transform="matrix(.95737 0 0 .95737 2.728 2.728)"/>
    <path clip-path="url(#b)" d="M30.914 47.846c-2.473 0-4.484 2.01-4.484 4.484s2.01 4.484 4.484 4.484c.427 0 .747.099 1.178.393.43.294.943.815 1.486 1.58 1.087 1.531 2.263 3.992 3.613 7.033 2.757 6.206 6.296 14.334 14.471 14.334 7.922 0 12.05-7.609 15.588-13.976 1.695-3.05 3.42-6.072 5.043-7.778 1.082-1.137 1.967-1.586 2.709-1.586.74 0 1.627.449 2.709 1.586 1.623 1.707 3.349 4.728 5.043 7.778 3.536 6.367 7.664 13.976 15.588 13.976 8.173 0 11.713-8.128 14.47-14.334 1.352-3.04 2.53-5.502 3.616-7.033.543-.766 1.055-1.286 1.486-1.58.43-.294.75-.393 1.176-.393 2.474 0 4.484-2.013 4.484-4.484s-2.01-4.484-4.484-4.484c-8.173 0-11.714 8.128-14.47 14.334-1.353 3.04-2.53 5.501-3.616 7.033-.543.766-1.056 1.286-1.486 1.58s-.75.393-1.176.393c-.74 0-1.626-.449-2.707-1.586-1.622-1.707-3.349-4.728-5.043-7.778-3.537-6.368-7.666-13.976-15.59-13.976-7.922 0-12.05 7.609-15.59 13.976-1.695 3.05-3.42 6.072-5.04 7.778-1.082 1.137-1.968 1.586-2.71 1.586-.426 0-.747-.099-1.178-.393-.43-.294-.94-.814-1.484-1.58-1.087-1.532-2.265-3.994-3.615-7.033-2.757-6.206-6.296-14.334-14.47-14.334z"/>
  </g>
</svg>
